<svg width="163" height="34" viewBox="0 0 163 34" fill="none" xmlns="http://www.w3.org/2000/svg">
<path d="M10.752 10.536V22H9.2V16.784H3.016V22H1.464V10.536H3.016V15.648H9.2V10.536H10.752ZM21.4348 11.84H17.7228V22H16.1788V11.84H12.4588V10.536H21.4348V11.84ZM35.0639 10.536V22H33.7039V13.576C33.7039 13.464 33.7065 13.344 33.7119 13.216C33.7225 13.088 33.7332 12.9573 33.7439 12.824L29.8079 19.992C29.6852 20.232 29.4985 20.352 29.2479 20.352H29.0239C28.7732 20.352 28.5865 20.232 28.4639 19.992L24.4479 12.792C24.4799 13.0747 24.4959 13.336 24.4959 13.576V22H23.1359V10.536H24.2799C24.4185 10.536 24.5252 10.5493 24.5999 10.576C24.6745 10.6027 24.7465 10.6773 24.8159 10.8L28.7759 17.856C28.8399 17.984 28.9012 18.1173 28.9599 18.256C29.0239 18.3947 29.0825 18.536 29.1359 18.68C29.1892 18.536 29.2452 18.3947 29.3039 18.256C29.3625 18.112 29.4265 17.976 29.4959 17.848L33.3839 10.8C33.4479 10.6773 33.5172 10.6027 33.5919 10.576C33.6719 10.5493 33.7812 10.536 33.9199 10.536H35.0639ZM44.4993 20.696V22H37.9953V10.536H39.5393V20.696H44.4993ZM55.3801 17.744L53.5801 13.08C53.5268 12.9413 53.4708 12.7813 53.4121 12.6C53.3535 12.4133 53.2975 12.216 53.2441 12.008C53.1321 12.44 53.0175 12.8 52.9001 13.088L51.1001 17.744H55.3801ZM58.6121 22H57.4121C57.2735 22 57.1615 21.9653 57.0761 21.896C56.9908 21.8267 56.9268 21.7387 56.8841 21.632L55.8121 18.864H50.6681L49.5961 21.632C49.5641 21.728 49.5028 21.8133 49.4121 21.888C49.3215 21.9627 49.2095 22 49.0761 22H47.8761L52.4601 10.536H54.0281L58.6121 22ZM65.2055 15.336C65.1628 15.3947 65.1202 15.44 65.0775 15.472C65.0348 15.504 64.9762 15.52 64.9015 15.52C64.8215 15.52 64.7335 15.488 64.6375 15.424C64.5415 15.3547 64.4215 15.28 64.2775 15.2C64.1388 15.12 63.9655 15.048 63.7575 14.984C63.5548 14.9147 63.3042 14.88 63.0055 14.88C62.6055 14.88 62.2535 14.952 61.9495 15.096C61.6455 15.2347 61.3895 15.4373 61.1815 15.704C60.9788 15.9707 60.8242 16.2933 60.7175 16.672C60.6162 17.0507 60.5655 17.4747 60.5655 17.944C60.5655 18.4347 60.6215 18.872 60.7335 19.256C60.8455 19.6347 61.0028 19.9547 61.2055 20.216C61.4135 20.472 61.6615 20.6693 61.9495 20.808C62.2428 20.9413 62.5708 21.008 62.9335 21.008C63.2802 21.008 63.5655 20.968 63.7895 20.888C64.0135 20.8027 64.1975 20.7093 64.3415 20.608C64.4908 20.5067 64.6135 20.416 64.7095 20.336C64.8108 20.2507 64.9095 20.208 65.0055 20.208C65.1228 20.208 65.2135 20.2533 65.2775 20.344L65.6775 20.864C65.5015 21.0827 65.3015 21.2693 65.0775 21.424C64.8535 21.5787 64.6108 21.7093 64.3495 21.816C64.0935 21.9173 63.8242 21.992 63.5415 22.04C63.2588 22.088 62.9708 22.112 62.6775 22.112C62.1708 22.112 61.6988 22.0187 61.2615 21.832C60.8295 21.6453 60.4535 21.376 60.1335 21.024C59.8135 20.6667 59.5628 20.2293 59.3815 19.712C59.2002 19.1947 59.1095 18.6053 59.1095 17.944C59.1095 17.3413 59.1922 16.784 59.3575 16.272C59.5282 15.76 59.7735 15.32 60.0935 14.952C60.4188 14.5787 60.8162 14.288 61.2855 14.08C61.7602 13.872 62.3042 13.768 62.9175 13.768C63.4882 13.768 63.9895 13.8613 64.4215 14.048C64.8588 14.2293 65.2455 14.488 65.5815 14.824L65.2055 15.336ZM71.5981 18.352C70.9421 18.3733 70.3821 18.4267 69.9181 18.512C69.4595 18.592 69.0835 18.6987 68.7901 18.832C68.5021 18.9653 68.2915 19.1227 68.1581 19.304C68.0301 19.4853 67.9661 19.688 67.9661 19.912C67.9661 20.1253 68.0008 20.3093 68.0701 20.464C68.1395 20.6187 68.2328 20.7467 68.3501 20.848C68.4728 20.944 68.6141 21.016 68.7741 21.064C68.9395 21.1067 69.1155 21.128 69.3021 21.128C69.5528 21.128 69.7821 21.104 69.9901 21.056C70.1981 21.0027 70.3928 20.928 70.5741 20.832C70.7608 20.736 70.9368 20.6213 71.1021 20.488C71.2728 20.3547 71.4381 20.2027 71.5981 20.032V18.352ZM66.9981 15.04C67.4461 14.608 67.9288 14.2853 68.4461 14.072C68.9635 13.8587 69.5368 13.752 70.1661 13.752C70.6195 13.752 71.0221 13.8267 71.3741 13.976C71.7261 14.1253 72.0221 14.3333 72.2621 14.6C72.5021 14.8667 72.6835 15.1893 72.8061 15.568C72.9288 15.9467 72.9901 16.3627 72.9901 16.816V22H72.3581C72.2195 22 72.1128 21.9787 72.0381 21.936C71.9635 21.888 71.9048 21.7973 71.8621 21.664L71.7021 20.896C71.4888 21.0933 71.2808 21.2693 71.0781 21.424C70.8755 21.5733 70.6621 21.7013 70.4381 21.808C70.2141 21.9093 69.9741 21.9867 69.7181 22.04C69.4675 22.0987 69.1875 22.128 68.8781 22.128C68.5635 22.128 68.2675 22.0853 67.9901 22C67.7128 21.9093 67.4701 21.776 67.2621 21.6C67.0595 21.424 66.8968 21.2027 66.7741 20.936C66.6568 20.664 66.5981 20.344 66.5981 19.976C66.5981 19.656 66.6861 19.3493 66.8621 19.056C67.0381 18.7573 67.3235 18.4933 67.7181 18.264C68.1128 18.0347 68.6275 17.848 69.2621 17.704C69.8968 17.5547 70.6755 17.4693 71.5981 17.448V16.816C71.5981 16.1867 71.4621 15.712 71.1901 15.392C70.9181 15.0667 70.5208 14.904 69.9981 14.904C69.6461 14.904 69.3501 14.9493 69.1101 15.04C68.8755 15.1253 68.6701 15.224 68.4941 15.336C68.3235 15.4427 68.1741 15.5413 68.0461 15.632C67.9235 15.7173 67.8008 15.76 67.6781 15.76C67.5821 15.76 67.4995 15.736 67.4301 15.688C67.3608 15.6347 67.3021 15.5707 67.2541 15.496L66.9981 15.04ZM80.4393 15.824C80.1726 15.4667 79.8846 15.2187 79.5753 15.08C79.2659 14.936 78.9193 14.864 78.5353 14.864C77.7833 14.864 77.2046 15.1333 76.7993 15.672C76.3939 16.2107 76.1913 16.9787 76.1913 17.976C76.1913 18.504 76.2366 18.9573 76.3273 19.336C76.4179 19.7093 76.5513 20.0187 76.7273 20.264C76.9033 20.504 77.1193 20.68 77.3753 20.792C77.6313 20.904 77.9219 20.96 78.2473 20.96C78.7166 20.96 79.1246 20.8533 79.4713 20.64C79.8233 20.4267 80.1459 20.1253 80.4393 19.736V15.824ZM81.8633 10.216V22H81.0153C80.8126 22 80.6846 21.9013 80.6313 21.704L80.5033 20.72C80.1566 21.136 79.7619 21.472 79.3193 21.728C78.8766 21.984 78.3646 22.112 77.7833 22.112C77.3193 22.112 76.8979 22.024 76.5193 21.848C76.1406 21.6667 75.8179 21.4027 75.5513 21.056C75.2846 20.7093 75.0793 20.2773 74.9353 19.76C74.7913 19.2427 74.7193 18.648 74.7193 17.976C74.7193 17.3787 74.7993 16.824 74.9593 16.312C75.1193 15.7947 75.3486 15.3467 75.6473 14.968C75.9459 14.5893 76.3113 14.2933 76.7433 14.08C77.1806 13.8613 77.6713 13.752 78.2153 13.752C78.7113 13.752 79.1353 13.8373 79.4873 14.008C79.8446 14.1733 80.1619 14.4053 80.4393 14.704V10.216H81.8633ZM89.5364 17.064C89.5364 16.7333 89.4884 16.432 89.3924 16.16C89.3017 15.8827 89.1657 15.6453 88.9844 15.448C88.8084 15.2453 88.5924 15.0907 88.3364 14.984C88.0804 14.872 87.7897 14.816 87.4644 14.816C86.7817 14.816 86.2404 15.016 85.8404 15.416C85.4457 15.8107 85.2004 16.36 85.1044 17.064H89.5364ZM90.6884 20.864C90.5124 21.0773 90.3017 21.264 90.0564 21.424C89.811 21.5787 89.547 21.7067 89.2644 21.808C88.987 21.9093 88.699 21.984 88.4004 22.032C88.1017 22.0853 87.8057 22.112 87.5124 22.112C86.9524 22.112 86.435 22.0187 85.9604 21.832C85.491 21.64 85.083 21.3627 84.7364 21C84.395 20.632 84.1284 20.1787 83.9364 19.64C83.7444 19.1013 83.6484 18.4827 83.6484 17.784C83.6484 17.2187 83.7337 16.6907 83.9044 16.2C84.0804 15.7093 84.331 15.2853 84.6564 14.928C84.9817 14.5653 85.379 14.2827 85.8484 14.08C86.3177 13.872 86.8457 13.768 87.4324 13.768C87.9177 13.768 88.3657 13.8507 88.7764 14.016C89.1924 14.176 89.5497 14.4107 89.8484 14.72C90.1524 15.024 90.3897 15.4027 90.5604 15.856C90.731 16.304 90.8164 16.816 90.8164 17.392C90.8164 17.616 90.7924 17.7653 90.7444 17.84C90.6964 17.9147 90.6057 17.952 90.4724 17.952H85.0564C85.0724 18.464 85.1417 18.9093 85.2644 19.288C85.3924 19.6667 85.5684 19.984 85.7924 20.24C86.0164 20.4907 86.283 20.68 86.5924 20.808C86.9017 20.9307 87.2484 20.992 87.6324 20.992C87.9897 20.992 88.2964 20.952 88.5524 20.872C88.8137 20.7867 89.0377 20.696 89.2244 20.6C89.411 20.504 89.5657 20.416 89.6884 20.336C89.8164 20.2507 89.9257 20.208 90.0164 20.208C90.1337 20.208 90.2244 20.2533 90.2884 20.344L90.6884 20.864ZM92.5655 22V13.896H93.4215C93.6242 13.896 93.7495 13.9947 93.7975 14.192L93.9015 15.024C94.2002 14.656 94.5362 14.3547 94.9095 14.12C95.2828 13.8853 95.7148 13.768 96.2055 13.768C96.7495 13.768 97.1895 13.92 97.5255 14.224C97.8668 14.528 98.1122 14.9387 98.2615 15.456C98.3788 15.1627 98.5282 14.9093 98.7095 14.696C98.8962 14.4827 99.1042 14.3067 99.3335 14.168C99.5628 14.0293 99.8055 13.928 100.062 13.864C100.323 13.8 100.587 13.768 100.854 13.768C101.28 13.768 101.659 13.8373 101.99 13.976C102.326 14.1093 102.608 14.3067 102.838 14.568C103.072 14.8293 103.251 15.152 103.374 15.536C103.496 15.9147 103.558 16.3493 103.558 16.84V22H102.126V16.84C102.126 16.2053 101.987 15.7253 101.71 15.4C101.432 15.0693 101.032 14.904 100.51 14.904C100.275 14.904 100.051 14.9467 99.8375 15.032C99.6295 15.112 99.4455 15.232 99.2855 15.392C99.1255 15.552 98.9975 15.7547 98.9015 16C98.8108 16.24 98.7655 16.52 98.7655 16.84V22H97.3335V16.84C97.3335 16.1893 97.2028 15.704 96.9415 15.384C96.6802 15.064 96.2988 14.904 95.7975 14.904C95.4455 14.904 95.1202 15 94.8215 15.192C94.5228 15.3787 94.2482 15.6347 93.9975 15.96V22H92.5655ZM112.511 13.896L107.991 24.392C107.943 24.4987 107.881 24.584 107.807 24.648C107.737 24.712 107.628 24.744 107.479 24.744H106.423L107.903 21.528L104.559 13.896H105.791C105.913 13.896 106.009 13.928 106.079 13.992C106.153 14.0507 106.204 14.1173 106.231 14.192L108.399 19.296C108.484 19.52 108.556 19.7547 108.615 20C108.689 19.7493 108.769 19.512 108.855 19.288L110.959 14.192C110.991 14.1067 111.044 14.0373 111.119 13.984C111.199 13.9253 111.287 13.896 111.383 13.896H112.511Z" fill="#444444"/>
<g clip-path="url(#clip0_2403_902)">
<path d="M149.643 0.0157537L149.5 0L136 1.40733V26.0129L149.5 34L163 26.0129V1.40733L149.643 0.0157537ZM161.234 25.0151L149.5 31.9573L137.766 25.0151V14.9293L149.451 21.8451L149.47 23.0984L141.454 18.3548L141.443 19.5801L149.489 24.3885L149.509 25.675L141.464 20.9174L141.454 22.1427L149.5 26.9511L157.624 22.1182V20.8929V16.909L161.243 14.7595L161.234 25.0151ZM161.234 13.4519L158.015 15.3319L156.533 16.2071L149.467 12.0201L149.456 13.2454L155.496 16.818L155.443 16.8495L155.313 16.9247L154.454 17.4166L149.467 14.4689L149.456 15.6942L153.392 18.0222L152.459 18.6314L152.438 18.6436L149.467 16.902L149.456 18.1273L151.403 19.2615L149.416 20.4483L137.797 13.5762L149.435 6.61831L161.234 13.4519ZM161.234 12.2266L149.44 5.31075L137.766 12.2196V2.9897L149.5 1.76442L161.234 2.9897V12.2266Z" fill="#666666"/>
</g>
<defs>
<clipPath id="clip0_2403_902">
<rect width="27" height="34" fill="white" transform="translate(136)"/>
</clipPath>
</defs>
</svg>
